<?xml version="1.0" encoding="utf-8" standalone="no"?>
<!DOCTYPE svg PUBLIC "-//W3C//DTD SVG 1.1//EN"
  "http://www.w3.org/Graphics/SVG/1.1/DTD/svg11.dtd">
<svg xmlns:xlink="http://www.w3.org/1999/xlink" width="849.689912pt" height="561.386475pt" viewBox="0 0 849.689912 561.386475" xmlns="http://www.w3.org/2000/svg" version="1.1">
 <metadata>
  <rdf:RDF xmlns:dc="http://purl.org/dc/elements/1.1/" xmlns:cc="http://creativecommons.org/ns#" xmlns:rdf="http://www.w3.org/1999/02/22-rdf-syntax-ns#">
   <cc:Work>
    <dc:type rdf:resource="http://purl.org/dc/dcmitype/StillImage"/>
    <dc:date>2025-04-29T00:30:59.729767</dc:date>
    <dc:format>image/svg+xml</dc:format>
    <dc:creator>
     <cc:Agent>
      <dc:title>Matplotlib v3.8.3, https://matplotlib.org/</dc:title>
     </cc:Agent>
    </dc:creator>
   </cc:Work>
  </rdf:RDF>
 </metadata>
 <defs>
  <style type="text/css">*{stroke-linejoin: round; stroke-linecap: butt}</style>
 </defs>
 <g id="figure_1">
  <g id="patch_1">
   <path d="M 0 561.386475 
L 849.689912 561.386475 
L 849.689912 0 
L 0 0 
z
" style="fill: #ffffff"/>
  </g>
  <g id="axes_1">
   <g id="patch_2">
    <path d="M 72.760313 503.473037 
L 842.489912 503.473037 
L 842.489912 40.303437 
L 72.760313 40.303437 
z
" style="fill: #ffffff"/>
   </g>
   <g id="matplotlib.axis_1">
    <g id="xtick_1">
     <g id="line2d_1">
      <defs>
       <path id="mb7e518e6a3" d="M 0 0 
L 0 4.8 
" style="stroke: #262626"/>
      </defs>
      <g>
       <use xlink:href="#mb7e518e6a3" x="201.048579" y="503.473037" style="fill: #262626; stroke: #262626"/>
      </g>
     </g>
     <g id="text_1">
      <!-- Linear -->
      <g style="fill: #262626" transform="translate(181.59186 521.793975) scale(0.14 -0.14)">
       <defs>
        <path id="ArialMT-4c" d="M 469 0 
L 469 4581 
L 1075 4581 
L 1075 541 
L 3331 541 
L 3331 0 
L 469 0 
z
" transform="scale(0.015625)"/>
        <path id="ArialMT-69" d="M 425 3934 
L 425 4581 
L 988 4581 
L 988 3934 
L 425 3934 
z
M 425 0 
L 425 3319 
L 988 3319 
L 988 0 
L 425 0 
z
" transform="scale(0.015625)"/>
        <path id="ArialMT-6e" d="M 422 0 
L 422 3319 
L 928 3319 
L 928 2847 
Q 1294 3394 1984 3394 
Q 2284 3394 2536 3286 
Q 2788 3178 2913 3003 
Q 3038 2828 3088 2588 
Q 3119 2431 3119 2041 
L 3119 0 
L 2556 0 
L 2556 2019 
Q 2556 2363 2490 2533 
Q 2425 2703 2258 2804 
Q 2091 2906 1866 2906 
Q 1506 2906 1245 2678 
Q 984 2450 984 1813 
L 984 0 
L 422 0 
z
" transform="scale(0.015625)"/>
        <path id="ArialMT-65" d="M 2694 1069 
L 3275 997 
Q 3138 488 2766 206 
Q 2394 -75 1816 -75 
Q 1088 -75 661 373 
Q 234 822 234 1631 
Q 234 2469 665 2931 
Q 1097 3394 1784 3394 
Q 2450 3394 2872 2941 
Q 3294 2488 3294 1666 
Q 3294 1616 3291 1516 
L 816 1516 
Q 847 969 1125 678 
Q 1403 388 1819 388 
Q 2128 388 2347 550 
Q 2566 713 2694 1069 
z
M 847 1978 
L 2700 1978 
Q 2663 2397 2488 2606 
Q 2219 2931 1791 2931 
Q 1403 2931 1139 2672 
Q 875 2413 847 1978 
z
" transform="scale(0.015625)"/>
        <path id="ArialMT-61" d="M 2588 409 
Q 2275 144 1986 34 
Q 1697 -75 1366 -75 
Q 819 -75 525 192 
Q 231 459 231 875 
Q 231 1119 342 1320 
Q 453 1522 633 1644 
Q 813 1766 1038 1828 
Q 1203 1872 1538 1913 
Q 2219 1994 2541 2106 
Q 2544 2222 2544 2253 
Q 2544 2597 2384 2738 
Q 2169 2928 1744 2928 
Q 1347 2928 1158 2789 
Q 969 2650 878 2297 
L 328 2372 
Q 403 2725 575 2942 
Q 747 3159 1072 3276 
Q 1397 3394 1825 3394 
Q 2250 3394 2515 3294 
Q 2781 3194 2906 3042 
Q 3031 2891 3081 2659 
Q 3109 2516 3109 2141 
L 3109 1391 
Q 3109 606 3145 398 
Q 3181 191 3288 0 
L 2700 0 
Q 2613 175 2588 409 
z
M 2541 1666 
Q 2234 1541 1622 1453 
Q 1275 1403 1131 1340 
Q 988 1278 909 1158 
Q 831 1038 831 891 
Q 831 666 1001 516 
Q 1172 366 1500 366 
Q 1825 366 2078 508 
Q 2331 650 2450 897 
Q 2541 1088 2541 1459 
L 2541 1666 
z
" transform="scale(0.015625)"/>
        <path id="ArialMT-72" d="M 416 0 
L 416 3319 
L 922 3319 
L 922 2816 
Q 1116 3169 1280 3281 
Q 1444 3394 1641 3394 
Q 1925 3394 2219 3213 
L 2025 2691 
Q 1819 2813 1613 2813 
Q 1428 2813 1281 2702 
Q 1134 2591 1072 2394 
Q 978 2094 978 1738 
L 978 0 
L 416 0 
z
" transform="scale(0.015625)"/>
       </defs>
       <use xlink:href="#ArialMT-4c"/>
       <use xlink:href="#ArialMT-69" x="55.615234"/>
       <use xlink:href="#ArialMT-6e" x="77.832031"/>
       <use xlink:href="#ArialMT-65" x="133.447266"/>
       <use xlink:href="#ArialMT-61" x="189.0625"/>
       <use xlink:href="#ArialMT-72" x="244.677734"/>
      </g>
     </g>
    </g>
    <g id="xtick_2">
     <g id="line2d_2">
      <g>
       <use xlink:href="#mb7e518e6a3" x="457.625112" y="503.473037" style="fill: #262626; stroke: #262626"/>
      </g>
     </g>
     <g id="text_2">
      <!-- Radial -->
      <g style="fill: #262626" transform="translate(437.781206 521.793975) scale(0.14 -0.14)">
       <defs>
        <path id="ArialMT-52" d="M 503 0 
L 503 4581 
L 2534 4581 
Q 3147 4581 3465 4457 
Q 3784 4334 3975 4021 
Q 4166 3709 4166 3331 
Q 4166 2844 3850 2509 
Q 3534 2175 2875 2084 
Q 3116 1969 3241 1856 
Q 3506 1613 3744 1247 
L 4541 0 
L 3778 0 
L 3172 953 
Q 2906 1366 2734 1584 
Q 2563 1803 2427 1890 
Q 2291 1978 2150 2013 
Q 2047 2034 1813 2034 
L 1109 2034 
L 1109 0 
L 503 0 
z
M 1109 2559 
L 2413 2559 
Q 2828 2559 3062 2645 
Q 3297 2731 3419 2920 
Q 3541 3109 3541 3331 
Q 3541 3656 3305 3865 
Q 3069 4075 2559 4075 
L 1109 4075 
L 1109 2559 
z
" transform="scale(0.015625)"/>
        <path id="ArialMT-64" d="M 2575 0 
L 2575 419 
Q 2259 -75 1647 -75 
Q 1250 -75 917 144 
Q 584 363 401 755 
Q 219 1147 219 1656 
Q 219 2153 384 2558 
Q 550 2963 881 3178 
Q 1213 3394 1622 3394 
Q 1922 3394 2156 3267 
Q 2391 3141 2538 2938 
L 2538 4581 
L 3097 4581 
L 3097 0 
L 2575 0 
z
M 797 1656 
Q 797 1019 1065 703 
Q 1334 388 1700 388 
Q 2069 388 2326 689 
Q 2584 991 2584 1609 
Q 2584 2291 2321 2609 
Q 2059 2928 1675 2928 
Q 1300 2928 1048 2622 
Q 797 2316 797 1656 
z
" transform="scale(0.015625)"/>
        <path id="ArialMT-6c" d="M 409 0 
L 409 4581 
L 972 4581 
L 972 0 
L 409 0 
z
" transform="scale(0.015625)"/>
       </defs>
       <use xlink:href="#ArialMT-52"/>
       <use xlink:href="#ArialMT-61" x="72.216797"/>
       <use xlink:href="#ArialMT-64" x="127.832031"/>
       <use xlink:href="#ArialMT-69" x="183.447266"/>
       <use xlink:href="#ArialMT-61" x="205.664062"/>
       <use xlink:href="#ArialMT-6c" x="261.279297"/>
      </g>
     </g>
    </g>
    <g id="xtick_3">
     <g id="line2d_3">
      <g>
       <use xlink:href="#mb7e518e6a3" x="714.201646" y="503.473037" style="fill: #262626; stroke: #262626"/>
      </g>
     </g>
     <g id="text_3">
      <!-- Uniform -->
      <g style="fill: #262626" transform="translate(689.699458 521.793975) scale(0.14 -0.14)">
       <defs>
        <path id="ArialMT-55" d="M 3500 4581 
L 4106 4581 
L 4106 1934 
Q 4106 1244 3950 837 
Q 3794 431 3386 176 
Q 2978 -78 2316 -78 
Q 1672 -78 1262 144 
Q 853 366 678 786 
Q 503 1206 503 1934 
L 503 4581 
L 1109 4581 
L 1109 1938 
Q 1109 1341 1220 1058 
Q 1331 775 1601 622 
Q 1872 469 2263 469 
Q 2931 469 3215 772 
Q 3500 1075 3500 1938 
L 3500 4581 
z
" transform="scale(0.015625)"/>
        <path id="ArialMT-66" d="M 556 0 
L 556 2881 
L 59 2881 
L 59 3319 
L 556 3319 
L 556 3672 
Q 556 4006 616 4169 
Q 697 4388 901 4523 
Q 1106 4659 1475 4659 
Q 1713 4659 2000 4603 
L 1916 4113 
Q 1741 4144 1584 4144 
Q 1328 4144 1222 4034 
Q 1116 3925 1116 3625 
L 1116 3319 
L 1763 3319 
L 1763 2881 
L 1116 2881 
L 1116 0 
L 556 0 
z
" transform="scale(0.015625)"/>
        <path id="ArialMT-6f" d="M 213 1659 
Q 213 2581 725 3025 
Q 1153 3394 1769 3394 
Q 2453 3394 2887 2945 
Q 3322 2497 3322 1706 
Q 3322 1066 3130 698 
Q 2938 331 2570 128 
Q 2203 -75 1769 -75 
Q 1072 -75 642 372 
Q 213 819 213 1659 
z
M 791 1659 
Q 791 1022 1069 705 
Q 1347 388 1769 388 
Q 2188 388 2466 706 
Q 2744 1025 2744 1678 
Q 2744 2294 2464 2611 
Q 2184 2928 1769 2928 
Q 1347 2928 1069 2612 
Q 791 2297 791 1659 
z
" transform="scale(0.015625)"/>
        <path id="ArialMT-6d" d="M 422 0 
L 422 3319 
L 925 3319 
L 925 2853 
Q 1081 3097 1340 3245 
Q 1600 3394 1931 3394 
Q 2300 3394 2536 3241 
Q 2772 3088 2869 2813 
Q 3263 3394 3894 3394 
Q 4388 3394 4653 3120 
Q 4919 2847 4919 2278 
L 4919 0 
L 4359 0 
L 4359 2091 
Q 4359 2428 4304 2576 
Q 4250 2725 4106 2815 
Q 3963 2906 3769 2906 
Q 3419 2906 3187 2673 
Q 2956 2441 2956 1928 
L 2956 0 
L 2394 0 
L 2394 2156 
Q 2394 2531 2256 2718 
Q 2119 2906 1806 2906 
Q 1569 2906 1367 2781 
Q 1166 2656 1075 2415 
Q 984 2175 984 1722 
L 984 0 
L 422 0 
z
" transform="scale(0.015625)"/>
       </defs>
       <use xlink:href="#ArialMT-55"/>
       <use xlink:href="#ArialMT-6e" x="72.216797"/>
       <use xlink:href="#ArialMT-69" x="127.832031"/>
       <use xlink:href="#ArialMT-66" x="150.048828"/>
       <use xlink:href="#ArialMT-6f" x="177.832031"/>
       <use xlink:href="#ArialMT-72" x="233.447266"/>
       <use xlink:href="#ArialMT-6d" x="266.748047"/>
      </g>
     </g>
    </g>
    <g id="text_4">
     <!-- Gradient Pattern -->
     <g style="fill: #262626" transform="translate(394.948862 551.028975) scale(0.16 -0.16)">
      <defs>
       <path id="Arial-BoldMT-47" d="M 2597 1684 
L 2597 2456 
L 4591 2456 
L 4591 631 
Q 4300 350 3748 136 
Q 3197 -78 2631 -78 
Q 1913 -78 1378 223 
Q 844 525 575 1086 
Q 306 1647 306 2306 
Q 306 3022 606 3578 
Q 906 4134 1484 4431 
Q 1925 4659 2581 4659 
Q 3434 4659 3914 4301 
Q 4394 3944 4531 3313 
L 3613 3141 
Q 3516 3478 3248 3673 
Q 2981 3869 2581 3869 
Q 1975 3869 1617 3484 
Q 1259 3100 1259 2344 
Q 1259 1528 1621 1120 
Q 1984 713 2572 713 
Q 2863 713 3155 827 
Q 3447 941 3656 1103 
L 3656 1684 
L 2597 1684 
z
" transform="scale(0.015625)"/>
       <path id="Arial-BoldMT-72" d="M 1300 0 
L 422 0 
L 422 3319 
L 1238 3319 
L 1238 2847 
Q 1447 3181 1614 3287 
Q 1781 3394 1994 3394 
Q 2294 3394 2572 3228 
L 2300 2463 
Q 2078 2606 1888 2606 
Q 1703 2606 1575 2504 
Q 1447 2403 1373 2137 
Q 1300 1872 1300 1025 
L 1300 0 
z
" transform="scale(0.015625)"/>
       <path id="Arial-BoldMT-61" d="M 1116 2306 
L 319 2450 
Q 453 2931 781 3162 
Q 1109 3394 1756 3394 
Q 2344 3394 2631 3255 
Q 2919 3116 3036 2902 
Q 3153 2688 3153 2116 
L 3144 1091 
Q 3144 653 3186 445 
Q 3228 238 3344 0 
L 2475 0 
Q 2441 88 2391 259 
Q 2369 338 2359 363 
Q 2134 144 1878 34 
Q 1622 -75 1331 -75 
Q 819 -75 523 203 
Q 228 481 228 906 
Q 228 1188 362 1408 
Q 497 1628 739 1745 
Q 981 1863 1438 1950 
Q 2053 2066 2291 2166 
L 2291 2253 
Q 2291 2506 2166 2614 
Q 2041 2722 1694 2722 
Q 1459 2722 1328 2630 
Q 1197 2538 1116 2306 
z
M 2291 1594 
Q 2122 1538 1756 1459 
Q 1391 1381 1278 1306 
Q 1106 1184 1106 997 
Q 1106 813 1243 678 
Q 1381 544 1594 544 
Q 1831 544 2047 700 
Q 2206 819 2256 991 
Q 2291 1103 2291 1419 
L 2291 1594 
z
" transform="scale(0.015625)"/>
       <path id="Arial-BoldMT-64" d="M 3503 0 
L 2688 0 
L 2688 488 
Q 2484 203 2207 64 
Q 1931 -75 1650 -75 
Q 1078 -75 670 386 
Q 263 847 263 1672 
Q 263 2516 659 2955 
Q 1056 3394 1663 3394 
Q 2219 3394 2625 2931 
L 2625 4581 
L 3503 4581 
L 3503 0 
z
M 1159 1731 
Q 1159 1200 1306 963 
Q 1519 619 1900 619 
Q 2203 619 2415 876 
Q 2628 1134 2628 1647 
Q 2628 2219 2422 2470 
Q 2216 2722 1894 2722 
Q 1581 2722 1370 2473 
Q 1159 2225 1159 1731 
z
" transform="scale(0.015625)"/>
       <path id="Arial-BoldMT-69" d="M 459 3769 
L 459 4581 
L 1338 4581 
L 1338 3769 
L 459 3769 
z
M 459 0 
L 459 3319 
L 1338 3319 
L 1338 0 
L 459 0 
z
" transform="scale(0.015625)"/>
       <path id="Arial-BoldMT-65" d="M 2381 1056 
L 3256 909 
Q 3088 428 2723 176 
Q 2359 -75 1813 -75 
Q 947 -75 531 491 
Q 203 944 203 1634 
Q 203 2459 634 2926 
Q 1066 3394 1725 3394 
Q 2466 3394 2894 2905 
Q 3322 2416 3303 1406 
L 1103 1406 
Q 1113 1016 1316 798 
Q 1519 581 1822 581 
Q 2028 581 2168 693 
Q 2309 806 2381 1056 
z
M 2431 1944 
Q 2422 2325 2234 2523 
Q 2047 2722 1778 2722 
Q 1491 2722 1303 2513 
Q 1116 2303 1119 1944 
L 2431 1944 
z
" transform="scale(0.015625)"/>
       <path id="Arial-BoldMT-6e" d="M 3478 0 
L 2600 0 
L 2600 1694 
Q 2600 2231 2544 2389 
Q 2488 2547 2361 2634 
Q 2234 2722 2056 2722 
Q 1828 2722 1647 2597 
Q 1466 2472 1398 2265 
Q 1331 2059 1331 1503 
L 1331 0 
L 453 0 
L 453 3319 
L 1269 3319 
L 1269 2831 
Q 1703 3394 2363 3394 
Q 2653 3394 2893 3289 
Q 3134 3184 3257 3021 
Q 3381 2859 3429 2653 
Q 3478 2447 3478 2063 
L 3478 0 
z
" transform="scale(0.015625)"/>
       <path id="Arial-BoldMT-74" d="M 1981 3319 
L 1981 2619 
L 1381 2619 
L 1381 1281 
Q 1381 875 1398 808 
Q 1416 741 1477 697 
Q 1538 653 1625 653 
Q 1747 653 1978 738 
L 2053 56 
Q 1747 -75 1359 -75 
Q 1122 -75 931 4 
Q 741 84 652 211 
Q 563 338 528 553 
Q 500 706 500 1172 
L 500 2619 
L 97 2619 
L 97 3319 
L 500 3319 
L 500 3978 
L 1381 4491 
L 1381 3319 
L 1981 3319 
z
" transform="scale(0.015625)"/>
       <path id="Arial-BoldMT-20" transform="scale(0.015625)"/>
       <path id="Arial-BoldMT-50" d="M 466 0 
L 466 4581 
L 1950 4581 
Q 2794 4581 3050 4513 
Q 3444 4409 3709 4064 
Q 3975 3719 3975 3172 
Q 3975 2750 3822 2462 
Q 3669 2175 3433 2011 
Q 3197 1847 2953 1794 
Q 2622 1728 1994 1728 
L 1391 1728 
L 1391 0 
L 466 0 
z
M 1391 3806 
L 1391 2506 
L 1897 2506 
Q 2444 2506 2628 2578 
Q 2813 2650 2917 2803 
Q 3022 2956 3022 3159 
Q 3022 3409 2875 3571 
Q 2728 3734 2503 3775 
Q 2338 3806 1838 3806 
L 1391 3806 
z
" transform="scale(0.015625)"/>
      </defs>
      <use xlink:href="#Arial-BoldMT-47"/>
      <use xlink:href="#Arial-BoldMT-72" x="77.783203"/>
      <use xlink:href="#Arial-BoldMT-61" x="116.699219"/>
      <use xlink:href="#Arial-BoldMT-64" x="172.314453"/>
      <use xlink:href="#Arial-BoldMT-69" x="233.398438"/>
      <use xlink:href="#Arial-BoldMT-65" x="261.181641"/>
      <use xlink:href="#Arial-BoldMT-6e" x="316.796875"/>
      <use xlink:href="#Arial-BoldMT-74" x="377.880859"/>
      <use xlink:href="#Arial-BoldMT-20" x="411.181641"/>
      <use xlink:href="#Arial-BoldMT-50" x="438.964844"/>
      <use xlink:href="#Arial-BoldMT-61" x="505.664062"/>
      <use xlink:href="#Arial-BoldMT-74" x="561.279297"/>
      <use xlink:href="#Arial-BoldMT-74" x="594.580078"/>
      <use xlink:href="#Arial-BoldMT-65" x="627.880859"/>
      <use xlink:href="#Arial-BoldMT-72" x="683.496094"/>
      <use xlink:href="#Arial-BoldMT-6e" x="722.412109"/>
     </g>
    </g>
   </g>
   <g id="matplotlib.axis_2">
    <g id="ytick_1">
     <g id="line2d_4">
      <path d="M 72.760313 474.9399 
L 842.489912 474.9399 
" clip-path="url(#pf0d6f46914)" style="fill: none; stroke-dasharray: 2.96,1.28; stroke-dashoffset: 0; stroke: #cccccc; stroke-opacity: 0.7; stroke-width: 0.8"/>
     </g>
     <g id="line2d_5">
      <defs>
       <path id="m8217a13625" d="M 0 0 
L -4.8 0 
" style="stroke: #262626"/>
      </defs>
      <g>
       <use xlink:href="#m8217a13625" x="72.760313" y="474.9399" style="fill: #262626; stroke: #262626"/>
      </g>
     </g>
     <g id="text_5">
      <!-- 2.5 -->
      <g style="fill: #262626" transform="translate(45.000313 479.950369) scale(0.14 -0.14)">
       <defs>
        <path id="ArialMT-32" d="M 3222 541 
L 3222 0 
L 194 0 
Q 188 203 259 391 
Q 375 700 629 1000 
Q 884 1300 1366 1694 
Q 2113 2306 2375 2664 
Q 2638 3022 2638 3341 
Q 2638 3675 2398 3904 
Q 2159 4134 1775 4134 
Q 1369 4134 1125 3890 
Q 881 3647 878 3216 
L 300 3275 
Q 359 3922 746 4261 
Q 1134 4600 1788 4600 
Q 2447 4600 2831 4234 
Q 3216 3869 3216 3328 
Q 3216 3053 3103 2787 
Q 2991 2522 2730 2228 
Q 2469 1934 1863 1422 
Q 1356 997 1212 845 
Q 1069 694 975 541 
L 3222 541 
z
" transform="scale(0.015625)"/>
        <path id="ArialMT-2e" d="M 581 0 
L 581 641 
L 1222 641 
L 1222 0 
L 581 0 
z
" transform="scale(0.015625)"/>
        <path id="ArialMT-35" d="M 266 1200 
L 856 1250 
Q 922 819 1161 601 
Q 1400 384 1738 384 
Q 2144 384 2425 690 
Q 2706 997 2706 1503 
Q 2706 1984 2436 2262 
Q 2166 2541 1728 2541 
Q 1456 2541 1237 2417 
Q 1019 2294 894 2097 
L 366 2166 
L 809 4519 
L 3088 4519 
L 3088 3981 
L 1259 3981 
L 1013 2750 
Q 1425 3038 1878 3038 
Q 2478 3038 2890 2622 
Q 3303 2206 3303 1553 
Q 3303 931 2941 478 
Q 2500 -78 1738 -78 
Q 1113 -78 717 272 
Q 322 622 266 1200 
z
" transform="scale(0.015625)"/>
       </defs>
       <use xlink:href="#ArialMT-32"/>
       <use xlink:href="#ArialMT-2e" x="55.615234"/>
       <use xlink:href="#ArialMT-35" x="83.398438"/>
      </g>
     </g>
    </g>
    <g id="ytick_2">
     <g id="line2d_6">
      <path d="M 72.760313 419.395541 
L 842.489912 419.395541 
" clip-path="url(#pf0d6f46914)" style="fill: none; stroke-dasharray: 2.96,1.28; stroke-dashoffset: 0; stroke: #cccccc; stroke-opacity: 0.7; stroke-width: 0.8"/>
     </g>
     <g id="line2d_7">
      <g>
       <use xlink:href="#m8217a13625" x="72.760313" y="419.395541" style="fill: #262626; stroke: #262626"/>
      </g>
     </g>
     <g id="text_6">
      <!-- 5.0 -->
      <g style="fill: #262626" transform="translate(45.000313 424.40601) scale(0.14 -0.14)">
       <defs>
        <path id="ArialMT-30" d="M 266 2259 
Q 266 3072 433 3567 
Q 600 4063 929 4331 
Q 1259 4600 1759 4600 
Q 2128 4600 2406 4451 
Q 2684 4303 2865 4023 
Q 3047 3744 3150 3342 
Q 3253 2941 3253 2259 
Q 3253 1453 3087 958 
Q 2922 463 2592 192 
Q 2263 -78 1759 -78 
Q 1097 -78 719 397 
Q 266 969 266 2259 
z
M 844 2259 
Q 844 1131 1108 757 
Q 1372 384 1759 384 
Q 2147 384 2411 759 
Q 2675 1134 2675 2259 
Q 2675 3391 2411 3762 
Q 2147 4134 1753 4134 
Q 1366 4134 1134 3806 
Q 844 3388 844 2259 
z
" transform="scale(0.015625)"/>
       </defs>
       <use xlink:href="#ArialMT-35"/>
       <use xlink:href="#ArialMT-2e" x="55.615234"/>
       <use xlink:href="#ArialMT-30" x="83.398438"/>
      </g>
     </g>
    </g>
    <g id="ytick_3">
     <g id="line2d_8">
      <path d="M 72.760313 363.851182 
L 842.489912 363.851182 
" clip-path="url(#pf0d6f46914)" style="fill: none; stroke-dasharray: 2.96,1.28; stroke-dashoffset: 0; stroke: #cccccc; stroke-opacity: 0.7; stroke-width: 0.8"/>
     </g>
     <g id="line2d_9">
      <g>
       <use xlink:href="#m8217a13625" x="72.760313" y="363.851182" style="fill: #262626; stroke: #262626"/>
      </g>
     </g>
     <g id="text_7">
      <!-- 7.5 -->
      <g style="fill: #262626" transform="translate(45.000313 368.86165) scale(0.14 -0.14)">
       <defs>
        <path id="ArialMT-37" d="M 303 3981 
L 303 4522 
L 3269 4522 
L 3269 4084 
Q 2831 3619 2401 2847 
Q 1972 2075 1738 1259 
Q 1569 684 1522 0 
L 944 0 
Q 953 541 1156 1306 
Q 1359 2072 1739 2783 
Q 2119 3494 2547 3981 
L 303 3981 
z
" transform="scale(0.015625)"/>
       </defs>
       <use xlink:href="#ArialMT-37"/>
       <use xlink:href="#ArialMT-2e" x="55.615234"/>
       <use xlink:href="#ArialMT-35" x="83.398438"/>
      </g>
     </g>
    </g>
    <g id="ytick_4">
     <g id="line2d_10">
      <path d="M 72.760313 308.306822 
L 842.489912 308.306822 
" clip-path="url(#pf0d6f46914)" style="fill: none; stroke-dasharray: 2.96,1.28; stroke-dashoffset: 0; stroke: #cccccc; stroke-opacity: 0.7; stroke-width: 0.8"/>
     </g>
     <g id="line2d_11">
      <g>
       <use xlink:href="#m8217a13625" x="72.760313" y="308.306822" style="fill: #262626; stroke: #262626"/>
      </g>
     </g>
     <g id="text_8">
      <!-- 10.0 -->
      <g style="fill: #262626" transform="translate(37.215 313.317291) scale(0.14 -0.14)">
       <defs>
        <path id="ArialMT-31" d="M 2384 0 
L 1822 0 
L 1822 3584 
Q 1619 3391 1289 3197 
Q 959 3003 697 2906 
L 697 3450 
Q 1169 3672 1522 3987 
Q 1875 4303 2022 4600 
L 2384 4600 
L 2384 0 
z
" transform="scale(0.015625)"/>
       </defs>
       <use xlink:href="#ArialMT-31"/>
       <use xlink:href="#ArialMT-30" x="55.615234"/>
       <use xlink:href="#ArialMT-2e" x="111.230469"/>
       <use xlink:href="#ArialMT-30" x="139.013672"/>
      </g>
     </g>
    </g>
    <g id="ytick_5">
     <g id="line2d_12">
      <path d="M 72.760313 252.762463 
L 842.489912 252.762463 
" clip-path="url(#pf0d6f46914)" style="fill: none; stroke-dasharray: 2.96,1.28; stroke-dashoffset: 0; stroke: #cccccc; stroke-opacity: 0.7; stroke-width: 0.8"/>
     </g>
     <g id="line2d_13">
      <g>
       <use xlink:href="#m8217a13625" x="72.760313" y="252.762463" style="fill: #262626; stroke: #262626"/>
      </g>
     </g>
     <g id="text_9">
      <!-- 12.5 -->
      <g style="fill: #262626" transform="translate(37.215 257.772932) scale(0.14 -0.14)">
       <use xlink:href="#ArialMT-31"/>
       <use xlink:href="#ArialMT-32" x="55.615234"/>
       <use xlink:href="#ArialMT-2e" x="111.230469"/>
       <use xlink:href="#ArialMT-35" x="139.013672"/>
      </g>
     </g>
    </g>
    <g id="ytick_6">
     <g id="line2d_14">
      <path d="M 72.760313 197.218104 
L 842.489912 197.218104 
" clip-path="url(#pf0d6f46914)" style="fill: none; stroke-dasharray: 2.96,1.28; stroke-dashoffset: 0; stroke: #cccccc; stroke-opacity: 0.7; stroke-width: 0.8"/>
     </g>
     <g id="line2d_15">
      <g>
       <use xlink:href="#m8217a13625" x="72.760313" y="197.218104" style="fill: #262626; stroke: #262626"/>
      </g>
     </g>
     <g id="text_10">
      <!-- 15.0 -->
      <g style="fill: #262626" transform="translate(37.215 202.228573) scale(0.14 -0.14)">
       <use xlink:href="#ArialMT-31"/>
       <use xlink:href="#ArialMT-35" x="55.615234"/>
       <use xlink:href="#ArialMT-2e" x="111.230469"/>
       <use xlink:href="#ArialMT-30" x="139.013672"/>
      </g>
     </g>
    </g>
    <g id="ytick_7">
     <g id="line2d_16">
      <path d="M 72.760313 141.673745 
L 842.489912 141.673745 
" clip-path="url(#pf0d6f46914)" style="fill: none; stroke-dasharray: 2.96,1.28; stroke-dashoffset: 0; stroke: #cccccc; stroke-opacity: 0.7; stroke-width: 0.8"/>
     </g>
     <g id="line2d_17">
      <g>
       <use xlink:href="#m8217a13625" x="72.760313" y="141.673745" style="fill: #262626; stroke: #262626"/>
      </g>
     </g>
     <g id="text_11">
      <!-- 17.5 -->
      <g style="fill: #262626" transform="translate(37.215 146.684213) scale(0.14 -0.14)">
       <use xlink:href="#ArialMT-31"/>
       <use xlink:href="#ArialMT-37" x="55.615234"/>
       <use xlink:href="#ArialMT-2e" x="111.230469"/>
       <use xlink:href="#ArialMT-35" x="139.013672"/>
      </g>
     </g>
    </g>
    <g id="ytick_8">
     <g id="line2d_18">
      <path d="M 72.760313 86.129385 
L 842.489912 86.129385 
" clip-path="url(#pf0d6f46914)" style="fill: none; stroke-dasharray: 2.96,1.28; stroke-dashoffset: 0; stroke: #cccccc; stroke-opacity: 0.7; stroke-width: 0.8"/>
     </g>
     <g id="line2d_19">
      <g>
       <use xlink:href="#m8217a13625" x="72.760313" y="86.129385" style="fill: #262626; stroke: #262626"/>
      </g>
     </g>
     <g id="text_12">
      <!-- 20.0 -->
      <g style="fill: #262626" transform="translate(37.215 91.139854) scale(0.14 -0.14)">
       <use xlink:href="#ArialMT-32"/>
       <use xlink:href="#ArialMT-30" x="55.615234"/>
       <use xlink:href="#ArialMT-2e" x="111.230469"/>
       <use xlink:href="#ArialMT-30" x="139.013672"/>
      </g>
     </g>
    </g>
    <g id="text_13">
     <!-- Mean Displacement (units) -->
     <g style="fill: #262626" transform="translate(18.8475 373.231987) rotate(-90) scale(0.16 -0.16)">
      <defs>
       <path id="Arial-BoldMT-4d" d="M 453 0 
L 453 4581 
L 1838 4581 
L 2669 1456 
L 3491 4581 
L 4878 4581 
L 4878 0 
L 4019 0 
L 4019 3606 
L 3109 0 
L 2219 0 
L 1313 3606 
L 1313 0 
L 453 0 
z
" transform="scale(0.015625)"/>
       <path id="Arial-BoldMT-44" d="M 463 4581 
L 2153 4581 
Q 2725 4581 3025 4494 
Q 3428 4375 3715 4072 
Q 4003 3769 4153 3330 
Q 4303 2891 4303 2247 
Q 4303 1681 4163 1272 
Q 3991 772 3672 463 
Q 3431 228 3022 97 
Q 2716 0 2203 0 
L 463 0 
L 463 4581 
z
M 1388 3806 
L 1388 772 
L 2078 772 
Q 2466 772 2638 816 
Q 2863 872 3011 1006 
Q 3159 1141 3253 1448 
Q 3347 1756 3347 2288 
Q 3347 2819 3253 3103 
Q 3159 3388 2990 3547 
Q 2822 3706 2563 3763 
Q 2369 3806 1803 3806 
L 1388 3806 
z
" transform="scale(0.015625)"/>
       <path id="Arial-BoldMT-73" d="M 150 947 
L 1031 1081 
Q 1088 825 1259 692 
Q 1431 559 1741 559 
Q 2081 559 2253 684 
Q 2369 772 2369 919 
Q 2369 1019 2306 1084 
Q 2241 1147 2013 1200 
Q 950 1434 666 1628 
Q 272 1897 272 2375 
Q 272 2806 612 3100 
Q 953 3394 1669 3394 
Q 2350 3394 2681 3172 
Q 3013 2950 3138 2516 
L 2309 2363 
Q 2256 2556 2107 2659 
Q 1959 2763 1684 2763 
Q 1338 2763 1188 2666 
Q 1088 2597 1088 2488 
Q 1088 2394 1175 2328 
Q 1294 2241 1995 2081 
Q 2697 1922 2975 1691 
Q 3250 1456 3250 1038 
Q 3250 581 2869 253 
Q 2488 -75 1741 -75 
Q 1063 -75 667 200 
Q 272 475 150 947 
z
" transform="scale(0.015625)"/>
       <path id="Arial-BoldMT-70" d="M 434 3319 
L 1253 3319 
L 1253 2831 
Q 1413 3081 1684 3237 
Q 1956 3394 2288 3394 
Q 2866 3394 3269 2941 
Q 3672 2488 3672 1678 
Q 3672 847 3265 386 
Q 2859 -75 2281 -75 
Q 2006 -75 1782 34 
Q 1559 144 1313 409 
L 1313 -1263 
L 434 -1263 
L 434 3319 
z
M 1303 1716 
Q 1303 1156 1525 889 
Q 1747 622 2066 622 
Q 2372 622 2575 867 
Q 2778 1113 2778 1672 
Q 2778 2194 2568 2447 
Q 2359 2700 2050 2700 
Q 1728 2700 1515 2451 
Q 1303 2203 1303 1716 
z
" transform="scale(0.015625)"/>
       <path id="Arial-BoldMT-6c" d="M 459 0 
L 459 4581 
L 1338 4581 
L 1338 0 
L 459 0 
z
" transform="scale(0.015625)"/>
       <path id="Arial-BoldMT-63" d="M 3353 2338 
L 2488 2181 
Q 2444 2441 2289 2572 
Q 2134 2703 1888 2703 
Q 1559 2703 1364 2476 
Q 1169 2250 1169 1719 
Q 1169 1128 1367 884 
Q 1566 641 1900 641 
Q 2150 641 2309 783 
Q 2469 925 2534 1272 
L 3397 1125 
Q 3263 531 2881 228 
Q 2500 -75 1859 -75 
Q 1131 -75 698 384 
Q 266 844 266 1656 
Q 266 2478 700 2936 
Q 1134 3394 1875 3394 
Q 2481 3394 2839 3133 
Q 3197 2872 3353 2338 
z
" transform="scale(0.015625)"/>
       <path id="Arial-BoldMT-6d" d="M 394 3319 
L 1203 3319 
L 1203 2866 
Q 1638 3394 2238 3394 
Q 2556 3394 2790 3262 
Q 3025 3131 3175 2866 
Q 3394 3131 3647 3262 
Q 3900 3394 4188 3394 
Q 4553 3394 4806 3245 
Q 5059 3097 5184 2809 
Q 5275 2597 5275 2122 
L 5275 0 
L 4397 0 
L 4397 1897 
Q 4397 2391 4306 2534 
Q 4184 2722 3931 2722 
Q 3747 2722 3584 2609 
Q 3422 2497 3350 2280 
Q 3278 2063 3278 1594 
L 3278 0 
L 2400 0 
L 2400 1819 
Q 2400 2303 2353 2443 
Q 2306 2584 2207 2653 
Q 2109 2722 1941 2722 
Q 1738 2722 1575 2612 
Q 1413 2503 1342 2297 
Q 1272 2091 1272 1613 
L 1272 0 
L 394 0 
L 394 3319 
z
" transform="scale(0.015625)"/>
       <path id="Arial-BoldMT-28" d="M 1916 -1347 
L 1313 -1347 
Q 834 -625 584 153 
Q 334 931 334 1659 
Q 334 2563 644 3369 
Q 913 4069 1325 4659 
L 1925 4659 
Q 1497 3713 1336 3048 
Q 1175 2384 1175 1641 
Q 1175 1128 1270 590 
Q 1366 53 1531 -431 
Q 1641 -750 1916 -1347 
z
" transform="scale(0.015625)"/>
       <path id="Arial-BoldMT-75" d="M 2644 0 
L 2644 497 
Q 2463 231 2167 78 
Q 1872 -75 1544 -75 
Q 1209 -75 943 72 
Q 678 219 559 484 
Q 441 750 441 1219 
L 441 3319 
L 1319 3319 
L 1319 1794 
Q 1319 1094 1367 936 
Q 1416 778 1544 686 
Q 1672 594 1869 594 
Q 2094 594 2272 717 
Q 2450 841 2515 1023 
Q 2581 1206 2581 1919 
L 2581 3319 
L 3459 3319 
L 3459 0 
L 2644 0 
z
" transform="scale(0.015625)"/>
       <path id="Arial-BoldMT-29" d="M 216 -1347 
Q 475 -791 581 -494 
Q 688 -197 778 190 
Q 869 578 912 926 
Q 956 1275 956 1641 
Q 956 2384 797 3048 
Q 638 3713 209 4659 
L 806 4659 
Q 1278 3988 1539 3234 
Q 1800 2481 1800 1706 
Q 1800 1053 1594 306 
Q 1359 -531 822 -1347 
L 216 -1347 
z
" transform="scale(0.015625)"/>
      </defs>
      <use xlink:href="#Arial-BoldMT-4d"/>
      <use xlink:href="#Arial-BoldMT-65" x="83.300781"/>
      <use xlink:href="#Arial-BoldMT-61" x="138.916016"/>
      <use xlink:href="#Arial-BoldMT-6e" x="194.53125"/>
      <use xlink:href="#Arial-BoldMT-20" x="255.615234"/>
      <use xlink:href="#Arial-BoldMT-44" x="283.398438"/>
      <use xlink:href="#Arial-BoldMT-69" x="355.615234"/>
      <use xlink:href="#Arial-BoldMT-73" x="383.398438"/>
      <use xlink:href="#Arial-BoldMT-70" x="439.013672"/>
      <use xlink:href="#Arial-BoldMT-6c" x="500.097656"/>
      <use xlink:href="#Arial-BoldMT-61" x="527.880859"/>
      <use xlink:href="#Arial-BoldMT-63" x="583.496094"/>
      <use xlink:href="#Arial-BoldMT-65" x="639.111328"/>
      <use xlink:href="#Arial-BoldMT-6d" x="694.726562"/>
      <use xlink:href="#Arial-BoldMT-65" x="783.642578"/>
      <use xlink:href="#Arial-BoldMT-6e" x="839.257812"/>
      <use xlink:href="#Arial-BoldMT-74" x="900.341797"/>
      <use xlink:href="#Arial-BoldMT-20" x="933.642578"/>
      <use xlink:href="#Arial-BoldMT-28" x="961.425781"/>
      <use xlink:href="#Arial-BoldMT-75" x="994.726562"/>
      <use xlink:href="#Arial-BoldMT-6e" x="1055.810547"/>
      <use xlink:href="#Arial-BoldMT-69" x="1116.894531"/>
      <use xlink:href="#Arial-BoldMT-74" x="1144.677734"/>
      <use xlink:href="#Arial-BoldMT-73" x="1177.978516"/>
      <use xlink:href="#Arial-BoldMT-29" x="1233.59375"/>
     </g>
    </g>
   </g>
   <g id="patch_3">
    <path d="M 136.904446 236.321333 
L 265.192712 236.321333 
L 265.192712 129.870568 
L 136.904446 129.870568 
L 136.904446 236.321333 
z
" clip-path="url(#pf0d6f46914)" style="fill: #455681; stroke: #353535; stroke-width: 1.5; stroke-linejoin: miter"/>
   </g>
   <g id="patch_4">
    <path d="M 393.480979 416.933074 
L 521.769246 416.933074 
L 521.769246 363.008759 
L 393.480979 363.008759 
L 393.480979 416.933074 
z
" clip-path="url(#pf0d6f46914)" style="fill: #2f837f; stroke: #353535; stroke-width: 1.5; stroke-linejoin: miter"/>
   </g>
   <g id="patch_5">
    <path d="M 650.057512 446.945543 
L 778.345779 446.945543 
L 778.345779 388.318472 
L 650.057512 388.318472 
L 650.057512 446.945543 
z
" clip-path="url(#pf0d6f46914)" style="fill: #6cbc6e; stroke: #353535; stroke-width: 1.5; stroke-linejoin: miter"/>
   </g>
   <g id="line2d_20">
    <path d="M 201.048579 236.321333 
L 201.048579 316.379269 
" clip-path="url(#pf0d6f46914)" style="fill: none; stroke: #353535; stroke-width: 1.5; stroke-linecap: round"/>
   </g>
   <g id="line2d_21">
    <path d="M 201.048579 129.870568 
L 201.048579 61.356601 
" clip-path="url(#pf0d6f46914)" style="fill: none; stroke: #353535; stroke-width: 1.5; stroke-linecap: round"/>
   </g>
   <g id="line2d_22">
    <path d="M 168.976512 316.379269 
L 233.120646 316.379269 
" clip-path="url(#pf0d6f46914)" style="fill: none; stroke: #353535; stroke-width: 1.5; stroke-linecap: round"/>
   </g>
   <g id="line2d_23">
    <path d="M 168.976512 61.356601 
L 233.120646 61.356601 
" clip-path="url(#pf0d6f46914)" style="fill: none; stroke: #353535; stroke-width: 1.5; stroke-linecap: round"/>
   </g>
   <g id="line2d_24"/>
   <g id="line2d_25">
    <path d="M 457.625112 416.933074 
L 457.625112 440.428338 
" clip-path="url(#pf0d6f46914)" style="fill: none; stroke: #353535; stroke-width: 1.5; stroke-linecap: round"/>
   </g>
   <g id="line2d_26">
    <path d="M 457.625112 363.008759 
L 457.625112 309.565828 
" clip-path="url(#pf0d6f46914)" style="fill: none; stroke: #353535; stroke-width: 1.5; stroke-linecap: round"/>
   </g>
   <g id="line2d_27">
    <path d="M 425.553046 440.428338 
L 489.697179 440.428338 
" clip-path="url(#pf0d6f46914)" style="fill: none; stroke: #353535; stroke-width: 1.5; stroke-linecap: round"/>
   </g>
   <g id="line2d_28">
    <path d="M 425.553046 309.565828 
L 489.697179 309.565828 
" clip-path="url(#pf0d6f46914)" style="fill: none; stroke: #353535; stroke-width: 1.5; stroke-linecap: round"/>
   </g>
   <g id="line2d_29">
    <defs>
     <path id="m759a92b32a" d="M -0 3.535534 
L 2.12132 0 
L -0 -3.535534 
L -2.12132 -0 
z
" style="stroke: #353535; stroke-linejoin: miter"/>
    </defs>
    <g clip-path="url(#pf0d6f46914)">
     <use xlink:href="#m759a92b32a" x="457.625112" y="274.572882" style="fill: #353535; stroke: #353535; stroke-linejoin: miter"/>
    </g>
   </g>
   <g id="line2d_30">
    <path d="M 714.201646 446.945543 
L 714.201646 482.419874 
" clip-path="url(#pf0d6f46914)" style="fill: none; stroke: #353535; stroke-width: 1.5; stroke-linecap: round"/>
   </g>
   <g id="line2d_31">
    <path d="M 714.201646 388.318472 
L 714.201646 315.231353 
" clip-path="url(#pf0d6f46914)" style="fill: none; stroke: #353535; stroke-width: 1.5; stroke-linecap: round"/>
   </g>
   <g id="line2d_32">
    <path d="M 682.129579 482.419874 
L 746.273712 482.419874 
" clip-path="url(#pf0d6f46914)" style="fill: none; stroke: #353535; stroke-width: 1.5; stroke-linecap: round"/>
   </g>
   <g id="line2d_33">
    <path d="M 682.129579 315.231353 
L 746.273712 315.231353 
" clip-path="url(#pf0d6f46914)" style="fill: none; stroke: #353535; stroke-width: 1.5; stroke-linecap: round"/>
   </g>
   <g id="line2d_34">
    <g clip-path="url(#pf0d6f46914)">
     <use xlink:href="#m759a92b32a" x="714.201646" y="288.384912" style="fill: #353535; stroke: #353535; stroke-linejoin: miter"/>
    </g>
   </g>
   <g id="line2d_35">
    <path d="M 136.904446 213.788838 
L 265.192712 213.788838 
" clip-path="url(#pf0d6f46914)" style="fill: none; stroke: #353535; stroke-width: 1.5"/>
   </g>
   <g id="line2d_36">
    <defs>
     <path id="m41a34d3ed8" d="M -0 5.656854 
L 5.656854 0 
L 0 -5.656854 
L -5.656854 -0 
z
" style="stroke: #000000; stroke-linejoin: miter"/>
    </defs>
    <g clip-path="url(#pf0d6f46914)">
     <use xlink:href="#m41a34d3ed8" x="201.048579" y="186.438795" style="fill: #ffffff; stroke: #000000; stroke-linejoin: miter"/>
    </g>
   </g>
   <g id="line2d_37">
    <path d="M 393.480979 395.974336 
L 521.769246 395.974336 
" clip-path="url(#pf0d6f46914)" style="fill: none; stroke: #353535; stroke-width: 1.5"/>
   </g>
   <g id="line2d_38">
    <g clip-path="url(#pf0d6f46914)">
     <use xlink:href="#m41a34d3ed8" x="457.625112" y="385.604204" style="fill: #ffffff; stroke: #000000; stroke-linejoin: miter"/>
    </g>
   </g>
   <g id="line2d_39">
    <path d="M 650.057512 418.691979 
L 778.345779 418.691979 
" clip-path="url(#pf0d6f46914)" style="fill: none; stroke: #353535; stroke-width: 1.5"/>
   </g>
   <g id="line2d_40">
    <g clip-path="url(#pf0d6f46914)">
     <use xlink:href="#m41a34d3ed8" x="714.201646" y="410.288117" style="fill: #ffffff; stroke: #000000; stroke-linejoin: miter"/>
    </g>
   </g>
   <g id="patch_6">
    <path d="M 72.760313 503.473037 
L 72.760313 40.303438 
" style="fill: none; stroke: #262626; stroke-width: 1.5; stroke-linejoin: miter; stroke-linecap: square"/>
   </g>
   <g id="patch_7">
    <path d="M 842.489912 503.473037 
L 842.489912 40.303438 
" style="fill: none; stroke: #262626; stroke-width: 1.5; stroke-linejoin: miter; stroke-linecap: square"/>
   </g>
   <g id="patch_8">
    <path d="M 72.760312 503.473037 
L 842.489912 503.473037 
" style="fill: none; stroke: #262626; stroke-width: 1.5; stroke-linejoin: miter; stroke-linecap: square"/>
   </g>
   <g id="patch_9">
    <path d="M 72.760312 40.303437 
L 842.489912 40.303437 
" style="fill: none; stroke: #262626; stroke-width: 1.5; stroke-linejoin: miter; stroke-linecap: square"/>
   </g>
   <g id="PathCollection_1">
    <defs>
     <path id="m90d742eaba" d="M 0 2.5 
C 0.663008 2.5 1.29895 2.236584 1.767767 1.767767 
C 2.236584 1.29895 2.5 0.663008 2.5 0 
C 2.5 -0.663008 2.236584 -1.29895 1.767767 -1.767767 
C 1.29895 -2.236584 0.663008 -2.5 0 -2.5 
C -0.663008 -2.5 -1.29895 -2.236584 -1.767767 -1.767767 
C -2.236584 -1.29895 -2.5 -0.663008 -2.5 0 
C -2.5 0.663008 -2.236584 1.29895 -1.767767 1.767767 
C -1.29895 2.236584 -0.663008 2.5 0 2.5 
z
"/>
    </defs>
    <g clip-path="url(#pf0d6f46914)">
     <use xlink:href="#m90d742eaba" x="192.874267" y="216.917837" style="fill-opacity: 0.5"/>
     <use xlink:href="#m90d742eaba" x="212.066561" y="254.984238" style="fill-opacity: 0.5"/>
     <use xlink:href="#m90d742eaba" x="191.06263" y="214.733092" style="fill-opacity: 0.5"/>
     <use xlink:href="#m90d742eaba" x="226.326043" y="93.053915" style="fill-opacity: 0.5"/>
     <use xlink:href="#m90d742eaba" x="184.607025" y="267.648351" style="fill-opacity: 0.5"/>
     <use xlink:href="#m90d742eaba" x="213.783047" y="239.431817" style="fill-opacity: 0.5"/>
     <use xlink:href="#m90d742eaba" x="221.285299" y="62.689666" style="fill-opacity: 0.5"/>
     <use xlink:href="#m90d742eaba" x="205.483662" y="235.284505" style="fill-opacity: 0.5"/>
     <use xlink:href="#m90d742eaba" x="225.645381" y="212.844584" style="fill-opacity: 0.5"/>
     <use xlink:href="#m90d742eaba" x="180.392447" y="218.880404" style="fill-opacity: 0.5"/>
     <use xlink:href="#m90d742eaba" x="200.902975" y="292.791431" style="fill-opacity: 0.5"/>
     <use xlink:href="#m90d742eaba" x="212.292945" y="61.356601" style="fill-opacity: 0.5"/>
     <use xlink:href="#m90d742eaba" x="198.751588" y="136.452575" style="fill-opacity: 0.5"/>
     <use xlink:href="#m90d742eaba" x="203.006202" y="316.379269" style="fill-opacity: 0.5"/>
     <use xlink:href="#m90d742eaba" x="213.501693" y="94.646187" style="fill-opacity: 0.5"/>
     <use xlink:href="#m90d742eaba" x="189.963766" y="158.929526" style="fill-opacity: 0.5"/>
     <use xlink:href="#m90d742eaba" x="217.911059" y="231.803725" style="fill-opacity: 0.5"/>
     <use xlink:href="#m90d742eaba" x="206.713605" y="164.335843" style="fill-opacity: 0.5"/>
     <use xlink:href="#m90d742eaba" x="198.886051" y="123.677372" style="fill-opacity: 0.5"/>
     <use xlink:href="#m90d742eaba" x="211.751152" y="131.934967" style="fill-opacity: 0.5"/>
    </g>
   </g>
   <g id="PathCollection_2">
    <g clip-path="url(#pf0d6f46914)">
     <use xlink:href="#m90d742eaba" x="449.259253" y="415.98882" style="fill-opacity: 0.5"/>
     <use xlink:href="#m90d742eaba" x="434.213703" y="363.14762" style="fill-opacity: 0.5"/>
     <use xlink:href="#m90d742eaba" x="472.958839" y="419.765837" style="fill-opacity: 0.5"/>
     <use xlink:href="#m90d742eaba" x="440.380879" y="403.806091" style="fill-opacity: 0.5"/>
     <use xlink:href="#m90d742eaba" x="462.266371" y="309.565828" style="fill-opacity: 0.5"/>
     <use xlink:href="#m90d742eaba" x="442.519293" y="353.55696" style="fill-opacity: 0.5"/>
     <use xlink:href="#m90d742eaba" x="479.221758" y="423.728001" style="fill-opacity: 0.5"/>
     <use xlink:href="#m90d742eaba" x="438.010862" y="420.099103" style="fill-opacity: 0.5"/>
     <use xlink:href="#m90d742eaba" x="462.239117" y="356.334178" style="fill-opacity: 0.5"/>
     <use xlink:href="#m90d742eaba" x="476.345098" y="389.290498" style="fill-opacity: 0.5"/>
     <use xlink:href="#m90d742eaba" x="450.698077" y="378.070538" style="fill-opacity: 0.5"/>
     <use xlink:href="#m90d742eaba" x="465.070329" y="362.592176" style="fill-opacity: 0.5"/>
     <use xlink:href="#m90d742eaba" x="465.504909" y="274.572882" style="fill-opacity: 0.5"/>
     <use xlink:href="#m90d742eaba" x="434.229827" y="406.768457" style="fill-opacity: 0.5"/>
     <use xlink:href="#m90d742eaba" x="453.958753" y="440.428338" style="fill-opacity: 0.5"/>
     <use xlink:href="#m90d742eaba" x="471.22741" y="411.545271" style="fill-opacity: 0.5"/>
     <use xlink:href="#m90d742eaba" x="442.612797" y="387.809315" style="fill-opacity: 0.5"/>
     <use xlink:href="#m90d742eaba" x="461.500673" y="365.295335" style="fill-opacity: 0.5"/>
     <use xlink:href="#m90d742eaba" x="469.400842" y="427.060662" style="fill-opacity: 0.5"/>
     <use xlink:href="#m90d742eaba" x="448.472357" y="402.658174" style="fill-opacity: 0.5"/>
    </g>
   </g>
   <g id="PathCollection_3">
    <g clip-path="url(#pf0d6f46914)">
     <use xlink:href="#m90d742eaba" x="709.683518" y="475.939699" style="fill-opacity: 0.5"/>
     <use xlink:href="#m90d742eaba" x="738.465852" y="417.247826" style="fill-opacity: 0.5"/>
     <use xlink:href="#m90d742eaba" x="699.336419" y="463.756969" style="fill-opacity: 0.5"/>
     <use xlink:href="#m90d742eaba" x="718.327839" y="436.984588" style="fill-opacity: 0.5"/>
     <use xlink:href="#m90d742eaba" x="732.808483" y="389.401587" style="fill-opacity: 0.5"/>
     <use xlink:href="#m90d742eaba" x="717.353587" y="444.871887" style="fill-opacity: 0.5"/>
     <use xlink:href="#m90d742eaba" x="710.144213" y="460.276189" style="fill-opacity: 0.5"/>
     <use xlink:href="#m90d742eaba" x="705.751209" y="288.384912" style="fill-opacity: 0.5"/>
     <use xlink:href="#m90d742eaba" x="723.562904" y="409.249438" style="fill-opacity: 0.5"/>
     <use xlink:href="#m90d742eaba" x="700.642863" y="385.069127" style="fill-opacity: 0.5"/>
     <use xlink:href="#m90d742eaba" x="719.967996" y="396.474235" style="fill-opacity: 0.5"/>
     <use xlink:href="#m90d742eaba" x="718.170383" y="444.686739" style="fill-opacity: 0.5"/>
     <use xlink:href="#m90d742eaba" x="691.086654" y="482.419874" style="fill-opacity: 0.5"/>
     <use xlink:href="#m90d742eaba" x="736.525926" y="398.177596" style="fill-opacity: 0.5"/>
     <use xlink:href="#m90d742eaba" x="707.448087" y="453.166511" style="fill-opacity: 0.5"/>
     <use xlink:href="#m90d742eaba" x="737.050269" y="428.801052" style="fill-opacity: 0.5"/>
     <use xlink:href="#m90d742eaba" x="716.374876" y="351.668452" style="fill-opacity: 0.5"/>
     <use xlink:href="#m90d742eaba" x="714.948373" y="315.231353" style="fill-opacity: 0.5"/>
     <use xlink:href="#m90d742eaba" x="729.964864" y="420.136132" style="fill-opacity: 0.5"/>
     <use xlink:href="#m90d742eaba" x="728.759534" y="343.818183" style="fill-opacity: 0.5"/>
    </g>
   </g>
   <g id="text_14">
    <!-- ANOVA: F=88.00, p=0.0000* -->
    <g style="fill: #ff0000" transform="translate(252.397158 37.900218) scale(0.12 -0.12)">
     <defs>
      <path id="ArialMT-41" d="M -9 0 
L 1750 4581 
L 2403 4581 
L 4278 0 
L 3588 0 
L 3053 1388 
L 1138 1388 
L 634 0 
L -9 0 
z
M 1313 1881 
L 2866 1881 
L 2388 3150 
Q 2169 3728 2063 4100 
Q 1975 3659 1816 3225 
L 1313 1881 
z
" transform="scale(0.015625)"/>
      <path id="ArialMT-4e" d="M 488 0 
L 488 4581 
L 1109 4581 
L 3516 984 
L 3516 4581 
L 4097 4581 
L 4097 0 
L 3475 0 
L 1069 3600 
L 1069 0 
L 488 0 
z
" transform="scale(0.015625)"/>
      <path id="ArialMT-4f" d="M 309 2231 
Q 309 3372 921 4017 
Q 1534 4663 2503 4663 
Q 3138 4663 3647 4359 
Q 4156 4056 4423 3514 
Q 4691 2972 4691 2284 
Q 4691 1588 4409 1038 
Q 4128 488 3612 205 
Q 3097 -78 2500 -78 
Q 1853 -78 1343 234 
Q 834 547 571 1087 
Q 309 1628 309 2231 
z
M 934 2222 
Q 934 1394 1379 917 
Q 1825 441 2497 441 
Q 3181 441 3623 922 
Q 4066 1403 4066 2288 
Q 4066 2847 3877 3264 
Q 3688 3681 3323 3911 
Q 2959 4141 2506 4141 
Q 1863 4141 1398 3698 
Q 934 3256 934 2222 
z
" transform="scale(0.015625)"/>
      <path id="ArialMT-56" d="M 1803 0 
L 28 4581 
L 684 4581 
L 1875 1253 
Q 2019 853 2116 503 
Q 2222 878 2363 1253 
L 3600 4581 
L 4219 4581 
L 2425 0 
L 1803 0 
z
" transform="scale(0.015625)"/>
      <path id="ArialMT-3a" d="M 578 2678 
L 578 3319 
L 1219 3319 
L 1219 2678 
L 578 2678 
z
M 578 0 
L 578 641 
L 1219 641 
L 1219 0 
L 578 0 
z
" transform="scale(0.015625)"/>
      <path id="ArialMT-20" transform="scale(0.015625)"/>
      <path id="ArialMT-46" d="M 525 0 
L 525 4581 
L 3616 4581 
L 3616 4041 
L 1131 4041 
L 1131 2622 
L 3281 2622 
L 3281 2081 
L 1131 2081 
L 1131 0 
L 525 0 
z
" transform="scale(0.015625)"/>
      <path id="ArialMT-3d" d="M 3381 2694 
L 356 2694 
L 356 3219 
L 3381 3219 
L 3381 2694 
z
M 3381 1303 
L 356 1303 
L 356 1828 
L 3381 1828 
L 3381 1303 
z
" transform="scale(0.015625)"/>
      <path id="ArialMT-38" d="M 1131 2484 
Q 781 2613 612 2850 
Q 444 3088 444 3419 
Q 444 3919 803 4259 
Q 1163 4600 1759 4600 
Q 2359 4600 2725 4251 
Q 3091 3903 3091 3403 
Q 3091 3084 2923 2848 
Q 2756 2613 2416 2484 
Q 2838 2347 3058 2040 
Q 3278 1734 3278 1309 
Q 3278 722 2862 322 
Q 2447 -78 1769 -78 
Q 1091 -78 675 323 
Q 259 725 259 1325 
Q 259 1772 486 2073 
Q 713 2375 1131 2484 
z
M 1019 3438 
Q 1019 3113 1228 2906 
Q 1438 2700 1772 2700 
Q 2097 2700 2305 2904 
Q 2513 3109 2513 3406 
Q 2513 3716 2298 3927 
Q 2084 4138 1766 4138 
Q 1444 4138 1231 3931 
Q 1019 3725 1019 3438 
z
M 838 1322 
Q 838 1081 952 856 
Q 1066 631 1291 507 
Q 1516 384 1775 384 
Q 2178 384 2440 643 
Q 2703 903 2703 1303 
Q 2703 1709 2433 1975 
Q 2163 2241 1756 2241 
Q 1359 2241 1098 1978 
Q 838 1716 838 1322 
z
" transform="scale(0.015625)"/>
      <path id="ArialMT-2c" d="M 569 0 
L 569 641 
L 1209 641 
L 1209 0 
Q 1209 -353 1084 -570 
Q 959 -788 688 -906 
L 531 -666 
Q 709 -588 793 -436 
Q 878 -284 888 0 
L 569 0 
z
" transform="scale(0.015625)"/>
      <path id="ArialMT-70" d="M 422 -1272 
L 422 3319 
L 934 3319 
L 934 2888 
Q 1116 3141 1344 3267 
Q 1572 3394 1897 3394 
Q 2322 3394 2647 3175 
Q 2972 2956 3137 2557 
Q 3303 2159 3303 1684 
Q 3303 1175 3120 767 
Q 2938 359 2589 142 
Q 2241 -75 1856 -75 
Q 1575 -75 1351 44 
Q 1128 163 984 344 
L 984 -1272 
L 422 -1272 
z
M 931 1641 
Q 931 1000 1190 694 
Q 1450 388 1819 388 
Q 2194 388 2461 705 
Q 2728 1022 2728 1688 
Q 2728 2322 2467 2637 
Q 2206 2953 1844 2953 
Q 1484 2953 1207 2617 
Q 931 2281 931 1641 
z
" transform="scale(0.015625)"/>
      <path id="ArialMT-2a" d="M 200 3741 
L 344 4184 
Q 841 4009 1066 3881 
Q 1006 4447 1003 4659 
L 1456 4659 
Q 1447 4350 1384 3884 
Q 1706 4047 2122 4184 
L 2266 3741 
Q 1869 3609 1488 3566 
Q 1678 3400 2025 2975 
L 1650 2709 
Q 1469 2956 1222 3381 
Q 991 2941 816 2709 
L 447 2975 
Q 809 3422 966 3566 
Q 563 3644 200 3741 
z
" transform="scale(0.015625)"/>
     </defs>
     <use xlink:href="#ArialMT-41"/>
     <use xlink:href="#ArialMT-4e" x="66.699219"/>
     <use xlink:href="#ArialMT-4f" x="138.916016"/>
     <use xlink:href="#ArialMT-56" x="216.699219"/>
     <use xlink:href="#ArialMT-41" x="276.023438"/>
     <use xlink:href="#ArialMT-3a" x="342.722656"/>
     <use xlink:href="#ArialMT-20" x="370.505859"/>
     <use xlink:href="#ArialMT-46" x="398.289062"/>
     <use xlink:href="#ArialMT-3d" x="459.373047"/>
     <use xlink:href="#ArialMT-38" x="517.771484"/>
     <use xlink:href="#ArialMT-38" x="573.386719"/>
     <use xlink:href="#ArialMT-2e" x="629.001953"/>
     <use xlink:href="#ArialMT-30" x="656.785156"/>
     <use xlink:href="#ArialMT-30" x="712.400391"/>
     <use xlink:href="#ArialMT-2c" x="768.015625"/>
     <use xlink:href="#ArialMT-20" x="795.798828"/>
     <use xlink:href="#ArialMT-70" x="823.582031"/>
     <use xlink:href="#ArialMT-3d" x="879.197266"/>
     <use xlink:href="#ArialMT-30" x="937.595703"/>
     <use xlink:href="#ArialMT-2e" x="993.210938"/>
     <use xlink:href="#ArialMT-30" x="1020.994141"/>
     <use xlink:href="#ArialMT-30" x="1076.609375"/>
     <use xlink:href="#ArialMT-30" x="1132.224609"/>
     <use xlink:href="#ArialMT-30" x="1187.839844"/>
     <use xlink:href="#ArialMT-2a" x="1243.455078"/>
    </g>
   </g>
   <g id="text_15">
    <!-- Mean Displacement by Gradient Type -->
    <g style="fill: #262626" transform="translate(298.256206 20.303437) scale(0.18 -0.18)">
     <defs>
      <path id="Arial-BoldMT-62" d="M 422 0 
L 422 4581 
L 1300 4581 
L 1300 2931 
Q 1706 3394 2263 3394 
Q 2869 3394 3266 2955 
Q 3663 2516 3663 1694 
Q 3663 844 3258 384 
Q 2853 -75 2275 -75 
Q 1991 -75 1714 67 
Q 1438 209 1238 488 
L 1238 0 
L 422 0 
z
M 1294 1731 
Q 1294 1216 1456 969 
Q 1684 619 2063 619 
Q 2353 619 2558 867 
Q 2763 1116 2763 1650 
Q 2763 2219 2556 2470 
Q 2350 2722 2028 2722 
Q 1713 2722 1503 2476 
Q 1294 2231 1294 1731 
z
" transform="scale(0.015625)"/>
      <path id="Arial-BoldMT-79" d="M 44 3319 
L 978 3319 
L 1772 963 
L 2547 3319 
L 3456 3319 
L 2284 125 
L 2075 -453 
Q 1959 -744 1854 -897 
Q 1750 -1050 1614 -1145 
Q 1478 -1241 1279 -1294 
Q 1081 -1347 831 -1347 
Q 578 -1347 334 -1294 
L 256 -606 
Q 463 -647 628 -647 
Q 934 -647 1081 -467 
Q 1228 -288 1306 -9 
L 44 3319 
z
" transform="scale(0.015625)"/>
      <path id="Arial-BoldMT-54" d="M 1497 0 
L 1497 3806 
L 138 3806 
L 138 4581 
L 3778 4581 
L 3778 3806 
L 2422 3806 
L 2422 0 
L 1497 0 
z
" transform="scale(0.015625)"/>
     </defs>
     <use xlink:href="#Arial-BoldMT-4d"/>
     <use xlink:href="#Arial-BoldMT-65" x="83.300781"/>
     <use xlink:href="#Arial-BoldMT-61" x="138.916016"/>
     <use xlink:href="#Arial-BoldMT-6e" x="194.53125"/>
     <use xlink:href="#Arial-BoldMT-20" x="255.615234"/>
     <use xlink:href="#Arial-BoldMT-44" x="283.398438"/>
     <use xlink:href="#Arial-BoldMT-69" x="355.615234"/>
     <use xlink:href="#Arial-BoldMT-73" x="383.398438"/>
     <use xlink:href="#Arial-BoldMT-70" x="439.013672"/>
     <use xlink:href="#Arial-BoldMT-6c" x="500.097656"/>
     <use xlink:href="#Arial-BoldMT-61" x="527.880859"/>
     <use xlink:href="#Arial-BoldMT-63" x="583.496094"/>
     <use xlink:href="#Arial-BoldMT-65" x="639.111328"/>
     <use xlink:href="#Arial-BoldMT-6d" x="694.726562"/>
     <use xlink:href="#Arial-BoldMT-65" x="783.642578"/>
     <use xlink:href="#Arial-BoldMT-6e" x="839.257812"/>
     <use xlink:href="#Arial-BoldMT-74" x="900.341797"/>
     <use xlink:href="#Arial-BoldMT-20" x="933.642578"/>
     <use xlink:href="#Arial-BoldMT-62" x="961.425781"/>
     <use xlink:href="#Arial-BoldMT-79" x="1022.509766"/>
     <use xlink:href="#Arial-BoldMT-20" x="1078.125"/>
     <use xlink:href="#Arial-BoldMT-47" x="1105.908203"/>
     <use xlink:href="#Arial-BoldMT-72" x="1183.691406"/>
     <use xlink:href="#Arial-BoldMT-61" x="1222.607422"/>
     <use xlink:href="#Arial-BoldMT-64" x="1278.222656"/>
     <use xlink:href="#Arial-BoldMT-69" x="1339.306641"/>
     <use xlink:href="#Arial-BoldMT-65" x="1367.089844"/>
     <use xlink:href="#Arial-BoldMT-6e" x="1422.705078"/>
     <use xlink:href="#Arial-BoldMT-74" x="1483.789062"/>
     <use xlink:href="#Arial-BoldMT-20" x="1517.089844"/>
     <use xlink:href="#Arial-BoldMT-54" x="1544.873047"/>
     <use xlink:href="#Arial-BoldMT-79" x="1598.582031"/>
     <use xlink:href="#Arial-BoldMT-70" x="1654.197266"/>
     <use xlink:href="#Arial-BoldMT-65" x="1715.28125"/>
    </g>
   </g>
  </g>
 </g>
 <defs>
  <clipPath id="pf0d6f46914">
   <rect x="72.760313" y="40.303437" width="769.7296" height="463.1696"/>
  </clipPath>
 </defs>
</svg>
